#N canvas 1476 459 817 674 10;
#X obj 212 77 notein;
#X floatatom 180 129 5 0 0 0 - - -;
#X floatatom 239 151 5 0 0 0 - - -;
#X floatatom 338 146 5 0 0 0 - - -;
#X obj 178 218 mtof;
#X obj 179 295 osc~;
#X obj 181 374 *~;
#X obj 239 218 moses 1;
#X msg 242 289 0 250;
#X msg 326 291 1 100;
#X obj 262 379 line 0 0 1;
#X floatatom 259 431 5 0 0 0 - - -;
#X obj 176 450 dac~;
#X connect 0 0 1 0;
#X connect 0 1 2 0;
#X connect 0 2 3 0;
#X connect 1 0 4 0;
#X connect 2 0 7 0;
#X connect 4 0 5 0;
#X connect 5 0 6 0;
#X connect 6 0 12 0;
#X connect 6 0 12 1;
#X connect 7 0 8 0;
#X connect 7 1 9 0;
#X connect 8 0 10 0;
#X connect 9 0 10 0;
#X connect 10 0 6 1;
#X connect 10 0 11 0;
